<?xml version="1.0" standalone="no"?>
<!DOCTYPE svg PUBLIC "-//W3C//DTD SVG 20010904//EN"
 "http://www.w3.org/TR/2001/REC-SVG-20010904/DTD/svg10.dtd">
<svg version="1.0" xmlns="http://www.w3.org/2000/svg"
 width="32.000000pt" height="32.000000pt" viewBox="0 0 32.000000 32.000000"
 preserveAspectRatio="xMidYMid meet">
<metadata>
Created by potrace 1.10, written by Peter Selinger 2001-2011
</metadata>
<g transform="translate(0.000000,32.000000) scale(0.100000,-0.100000)"
fill="#e01b24" stroke="none">
<path d="M115 300 c-45 -19 -106 -109 -105 -157 1 -10 9 7 20 37 22 64 64 106
115 116 77 14 155 -48 155 -125 0 -52 -18 -107 -43 -137 l-22 -26 -27 25 -27
25 20 38 c10 21 19 45 19 54 0 23 -21 47 -47 55 -31 9 -73 -34 -73 -75 0 -24
-6 -33 -27 -41 -20 -8 -33 -7 -47 1 -14 9 -17 9 -14 -2 6 -17 52 -22 78 -8 13
7 20 21 20 41 0 41 42 84 69 69 31 -16 35 -47 12 -91 l-21 -40 30 -30 c24 -24
33 -28 48 -20 28 15 55 79 60 141 3 45 0 61 -20 90 -39 58 -115 84 -173 60z"/>
<path d="M125 276 c-16 -7 -38 -22 -47 -32 -24 -28 -48 -88 -48 -122 0 -26 3
-29 25 -24 18 3 27 14 34 40 13 44 48 82 76 82 28 0 65 -40 65 -69 0 -13 -7
-39 -16 -58 -16 -33 -16 -35 3 -54 20 -20 20 -20 36 5 9 14 22 46 29 71 29
108 -64 204 -157 161z m40 -17 c10 -15 -1 -23 -20 -15 -9 3 -13 10 -10 16 8
13 22 13 30 -1z m44 2 c12 -8 12 -12 2 -25 -16 -19 -31 -12 -31 15 0 21 7 23
29 10z m-91 -33 c-6 -18 -28 -21 -28 -4 0 9 7 16 16 16 9 0 14 -5 12 -12z
m132 -3 c0 -8 -7 -15 -15 -15 -8 0 -15 7 -15 15 0 8 7 15 15 15 8 0 15 -7 15
-15z m-160 -40 c0 -8 -7 -15 -15 -15 -8 0 -15 7 -15 15 0 8 7 15 15 15 8 0 15
-7 15 -15z m180 -11 c0 -9 -5 -14 -12 -12 -18 6 -21 28 -4 28 9 0 16 -7 16
-16z m-192 -36 c-6 -18 -28 -21 -28 -4 0 9 7 16 16 16 9 0 14 -5 12 -12z m192
-13 c0 -8 -7 -15 -15 -15 -8 0 -15 7 -15 15 0 8 7 15 15 15 8 0 15 -7 15 -15z
m-22 -46 c-2 -6 -8 -10 -13 -10 -5 0 -11 4 -13 10 -2 6 4 11 13 11 9 0 15 -5
13 -11z"/>
</g>
</svg>
